<svg width="36" height="30" viewBox="0 0 36 30" fill="none" xmlns="http://www.w3.org/2000/svg">
<path d="M31.0607 19.0555C30.8879 17.8549 29.9609 16.9189 28.7675 16.6399C24.1289 15.5527 22.9661 12.8815 22.7699 9.9187C21.9473 9.7657 20.4839 9.6001 17.9999 9.6001C15.5159 9.6001 14.0525 9.7657 13.2299 9.9187C13.0337 12.8815 11.8709 15.5527 7.23233 16.6399C6.03893 16.9207 5.11193 17.8549 4.93913 19.0555L4.04453 25.2511C3.72953 27.4327 5.33153 29.4001 7.55993 29.4001H28.4399C30.6665 29.4001 32.2703 27.4327 31.9553 25.2511L31.0607 19.0555ZM17.9999 24.8857C15.4889 24.8857 13.4531 22.8697 13.4531 20.3857C13.4531 17.9017 15.4889 15.8857 17.9999 15.8857C20.5109 15.8857 22.5467 17.9017 22.5467 20.3857C22.5467 22.8697 20.5091 24.8857 17.9999 24.8857ZM35.9099 7.8001C35.8667 5.1001 28.9943 0.601898 17.9999 0.600098C7.00373 0.601898 0.13133 5.1001 0.0899295 7.8001C0.0485295 10.5001 0.12773 14.0137 4.65293 13.4287C9.94673 12.7429 9.62093 10.8943 9.62093 8.2519C9.62093 6.4087 13.9265 5.9641 17.9999 5.9641C22.0733 5.9641 26.3771 6.4087 26.3789 8.2519C26.3789 10.8943 26.0531 12.7429 31.3469 13.4287C35.8703 14.0137 35.9513 10.5001 35.9099 7.8001Z" fill="white"/>
</svg>
