<svg width="26" height="20" viewBox="0 0 26 20" fill="none" xmlns="http://www.w3.org/2000/svg">
<path d="M25.5 5.76V15.9375C25.5001 16.9752 25.1031 17.9735 24.3904 18.7278C23.6778 19.482 22.7035 19.935 21.6675 19.9938L21.4375 20H4.5625C3.52483 20.0001 2.52646 19.6031 1.77221 18.8904C1.01796 18.1778 0.564998 17.2035 0.50625 16.1675L0.5 15.9375V5.76L12.565 12.08C12.6992 12.1503 12.8485 12.187 13 12.187C13.1515 12.187 13.3008 12.1503 13.435 12.08L25.5 5.76ZM4.5625 2.95064e-08H21.4375C22.4445 -0.000121268 23.4156 0.373744 24.1625 1.04908C24.9095 1.72442 25.379 2.6531 25.48 3.655L13 10.1925L0.52 3.655C0.616904 2.69289 1.05381 1.7969 1.75219 1.12808C2.45056 0.459261 3.3646 0.0614837 4.33 0.00625017L4.5625 2.95064e-08H21.4375H4.5625Z" fill="black"/>
</svg>
