<svg width="36" height="36" viewBox="0 0 36 36" fill="none" xmlns="http://www.w3.org/2000/svg">
<g clip-path="url(#clip0_3_1275)">
<path d="M0.768135 17.7844C0.767291 20.8091 1.56379 23.7625 3.07832 26.3657L0.623291 35.2599L9.79654 32.8733C12.3337 34.2439 15.1765 34.962 18.0653 34.9622H18.0729C27.6094 34.9622 35.3723 27.2622 35.3764 17.798C35.3782 13.2119 33.5799 8.89942 30.3126 5.65495C27.0459 2.41077 22.7013 0.623187 18.0722 0.621094C8.53457 0.621094 0.772213 8.32063 0.768275 17.7844" fill="url(#paint0_linear_3_1275)"/>
<path d="M0.150469 17.779C0.149484 20.9125 0.974531 23.9715 2.54306 26.6679L0 35.881L9.50217 33.4088C12.1203 34.8253 15.0681 35.572 18.0676 35.5732H18.0754C27.954 35.5732 35.9958 27.5962 36 17.7932C36.0017 13.0423 34.1387 8.57484 30.7547 5.21414C27.3703 1.85386 22.8703 0.00195349 18.0754 0C8.19506 0 0.154547 7.97581 0.150609 17.779H0.150469ZM5.80922 26.2035L5.45442 25.6447C3.96295 23.2916 3.17573 20.5723 3.17686 17.7801C3.18009 9.63195 9.86316 3.00279 18.081 3.00279C22.0607 3.00447 25.8007 4.54381 28.6138 7.33674C31.4267 10.13 32.9746 13.843 32.9736 17.7921C32.97 25.9402 26.2867 32.5702 18.0754 32.5702H18.0695C15.3958 32.5688 12.7735 31.8564 10.4867 30.51L9.94247 30.1898L4.30369 31.6567L5.80922 26.2034V26.2035Z" fill="url(#paint1_linear_3_1275)"/>
<path d="M13.5953 10.3463C13.2597 9.60636 12.9066 9.59143 12.5875 9.57845C12.3263 9.56729 12.0276 9.56813 11.7292 9.56813C11.4305 9.56813 10.9452 9.67962 10.535 10.124C10.1243 10.5689 8.96729 11.6439 8.96729 13.8302C8.96729 16.0167 10.5722 18.1297 10.796 18.4265C11.02 18.7227 13.8944 23.3531 18.4467 25.1344C22.2301 26.6147 23 26.3203 23.8211 26.246C24.6423 26.1721 26.471 25.1713 26.8441 24.1336C27.2175 23.096 27.2175 22.2066 27.1055 22.0208C26.9936 21.8356 26.6949 21.7244 26.247 21.5023C25.799 21.28 23.5971 20.2049 23.1866 20.0565C22.776 19.9084 22.4774 19.8344 22.1787 20.2794C21.88 20.7237 21.0224 21.7244 20.7609 22.0208C20.4998 22.3179 20.2384 22.3548 19.7906 22.1325C19.3425 21.9096 17.9001 21.4409 16.1888 19.9271C14.8574 18.7491 13.9585 17.2945 13.6972 16.8495C13.4359 16.4052 13.6692 16.1644 13.8938 15.9429C14.095 15.7438 14.3418 15.424 14.566 15.1646C14.7893 14.9051 14.8638 14.7199 15.0132 14.4235C15.1627 14.1269 15.0878 13.8673 14.9761 13.6451C14.8638 13.4228 13.9935 11.2251 13.5953 10.3465" fill="white"/>
</g>
<defs>
<linearGradient id="paint0_linear_3_1275" x1="17.9998" y1="35.2599" x2="17.9998" y2="0.621094" gradientUnits="userSpaceOnUse">
<stop stop-color="#1FAF38"/>
<stop offset="1" stop-color="#60D669"/>
</linearGradient>
<linearGradient id="paint1_linear_3_1275" x1="18" y1="35.881" x2="18" y2="0" gradientUnits="userSpaceOnUse">
<stop stop-color="#F9F9F9"/>
<stop offset="1" stop-color="white"/>
</linearGradient>
<clipPath id="clip0_3_1275">
<rect width="36" height="36" fill="white"/>
</clipPath>
</defs>
</svg>
